# xmcd
#
# Track frame offsets: 
#        150
#        25743
#        45813
#        95103
#        119283
#        142263
#        166323
#        183393
#        251313
#
# Disc length: 3383 seconds
#
# Revision: 0
# Processed by: cddbd v1.5.2PL0 Copyright (c) Steve Scherf et al.
# Submitted via: ExactAudioCopy v1.2
#
DISCID=710d3509
DTITLE=Johnny 'Guitar' Watson - At Onkel Pö's Carnegie Hall, Hamburg 1
DTITLE=976
DYEAR=2017
DGENRE=Blues
TTITLE0=Mr. Magic
TTITLE1=I Don't Want to Be a Lone Ranger
TTITLE2=Stormy Monday
TTITLE3=Superman Lover
TTITLE4=Gangsters of Love
TTITLE5=Ain't That a Bitch
TTITLE6=Cuttin' In
TTITLE7=I Need It
TTITLE8=Signature Tune
EXTD=
EXTT0=
EXTT1=
EXTT2=
EXTT3=
EXTT4=
EXTT5=
EXTT6=
EXTT7=
EXTT8=
PLAYORDER=
